<?xml version="1.0" standalone="no"?>
<!DOCTYPE svg PUBLIC "-//W3C//DTD SVG 20010904//EN"
 "http://www.w3.org/TR/2001/REC-SVG-20010904/DTD/svg10.dtd">
<svg version="1.0" xmlns="http://www.w3.org/2000/svg"
 width="32.000000pt" height="32.000000pt" viewBox="0 0 32.000000 32.000000"
 preserveAspectRatio="xMidYMid meet">

<g transform="translate(0.000000,32.000000) scale(0.100000,-0.100000)"
fill="#000000" stroke="none">
<path d="M143 178 l-63 -62 -34 33 c-23 23 -36 29 -41 21 -5 -7 9 -28 34 -53
l41 -42 70 70 c63 62 84 95 62 95 -4 0 -35 -28 -69 -62z"/>
<path d="M235 180 c-32 -32 -62 -57 -67 -54 -4 3 -13 2 -18 -1 -13 -8 6 -45
23 -45 20 0 150 137 143 149 -12 18 -19 14 -81 -49z"/>
</g>
</svg>
