<?xml version="1.0" standalone="no"?>
<!DOCTYPE svg PUBLIC "-//W3C//DTD SVG 20010904//EN"
 "http://www.w3.org/TR/2001/REC-SVG-20010904/DTD/svg10.dtd">
<svg version="1.0" xmlns="http://www.w3.org/2000/svg"
 width="752.000000pt" height="752.000000pt" viewBox="0 0 752.000000 752.000000"
 preserveAspectRatio="xMidYMid meet">

<g transform="translate(0.000000,752.000000) scale(0.100000,-0.100000)"
fill="#000000" stroke="none">
<path d="M3435 4438 c-3 -7 -4 -317 -3 -688 l3 -675 30 0 30 0 0 685 0 685
-28 3 c-16 2 -29 -2 -32 -10z"/>
<path d="M4322 4288 c-17 -17 -17 -1039 0 -1056 18 -18 46 -14 58 8 7 13 10
184 8 530 -3 441 -5 512 -18 520 -20 13 -34 12 -48 -2z"/>
<path d="M3292 4248 c-9 -9 -12 -130 -12 -484 0 -416 2 -474 16 -488 8 -9 19
-16 24 -16 5 0 16 7 24 16 14 14 16 72 16 488 0 488 -1 496 -40 496 -9 0 -21
-5 -28 -12z"/>
<path d="M3580 4141 c-6 -13 -10 -151 -10 -381 0 -230 4 -368 10 -381 12 -21
40 -25 58 -7 17 17 17 759 0 776 -18 18 -46 14 -58 -7z"/>
<path d="M3150 4130 c-13 -8 -15 -60 -18 -353 -2 -215 1 -354 7 -370 11 -29
39 -35 59 -15 17 17 17 719 0 736 -14 14 -28 15 -48 2z"/>
<path d="M4171 4126 c-8 -9 -11 -117 -9 -376 3 -333 4 -364 21 -374 12 -8 22
-8 35 0 16 10 17 41 20 365 1 195 0 364 -3 377 -6 25 -45 31 -64 8z"/>
<path d="M2852 4068 c-9 -9 -12 -93 -12 -315 0 -289 1 -303 19 -313 25 -13 27
-13 45 6 14 13 16 56 16 313 0 306 -2 321 -40 321 -9 0 -21 -5 -28 -12z"/>
<path d="M4467 4054 c-4 -4 -7 -137 -7 -294 0 -250 2 -289 16 -301 11 -9 20
-10 32 -2 15 9 17 41 17 304 l0 294 -25 3 c-14 2 -29 0 -33 -4z"/>
<path d="M4025 3988 c-3 -7 -4 -115 -3 -238 l3 -225 30 0 30 0 0 235 0 235
-28 3 c-16 2 -29 -2 -32 -10z"/>
<path d="M2997 3974 c-4 -4 -7 -101 -7 -215 0 -200 1 -209 21 -219 15 -9 24
-8 35 1 12 10 14 48 12 223 l-3 211 -25 3 c-14 2 -29 0 -33 -4z"/>
<path d="M3736 3954 c-13 -13 -16 -45 -16 -194 0 -149 3 -181 16 -194 8 -9 19
-16 24 -16 5 0 16 7 24 16 13 13 16 45 16 194 0 149 -3 181 -16 194 -8 9 -19
16 -24 16 -5 0 -16 -7 -24 -16z"/>
<path d="M2706 3914 c-13 -12 -16 -41 -16 -148 0 -145 8 -170 51 -164 l24 3 3
149 c3 149 -3 176 -34 176 -7 0 -20 -7 -28 -16z"/>
<path d="M4612 3908 c-15 -15 -17 -271 -2 -299 12 -21 40 -25 58 -7 13 13 18
271 6 302 -7 19 -45 21 -62 4z"/>
<path d="M3882 3868 c-18 -18 -16 -202 3 -218 24 -20 54 -3 61 36 10 57 0 174
-16 184 -20 13 -34 12 -48 -2z"/>
<path d="M4762 3828 c-7 -7 -12 -38 -12 -70 0 -49 3 -59 22 -69 18 -10 24 -8
40 11 20 25 24 90 8 121 -12 21 -40 25 -58 7z"/>
</g>
</svg>
